<?xml version="1.0" encoding="UTF-8"?>
<svg width="200px" height="200px" viewBox="0 0 200 200" version="1.1" xmlns="http://www.w3.org/2000/svg" xmlns:xlink="http://www.w3.org/1999/xlink">
    <title>assumption</title>
    <defs>
        <polygon id="path-1" points="0.0373831776 0.332087227 199.388785 0.332087227 199.388785 170.716511 0.0373831776 170.716511"></polygon>
    </defs>
    <g id="assumption" stroke="none" stroke-width="1" fill="none" fill-rule="evenodd">
        <g id="assumption" transform="translate(0.000000, 15.000000)">
            <g id="Group-3">
                <mask id="mask-2" fill="white">
                    <use xlink:href="#path-1"></use>
                </mask>
                <g id="Clip-2"></g>
                <polyline id="Fill-1" fill="#B5B4B0" mask="url(#mask-2)" points="187.978193 91.7445483 199.252336 0.332087227 96.729595 0.332087227 104.370717 18.811215 54.2598131 91.7445483 5.7682243 91.7445483 27.7109034 130.385047 0 170.716511 84.6797508 170.716511 99.928972 142.966978 110.588162 142.966978 104.550156 170.716511 178.627414 170.716511 181.886604 142.966978 193.37134 142.966978 199.388785 91.7445483 187.978193 91.7445483"></polyline>
            </g>
            <path d="M126.341433,97.8735202 L117.360748,97.8735202 L132.227414,70.8205607 L126.341433,97.8735202 Z M181.570093,97.4105919 L192.84486,5.99813084 L105.203738,5.99813084 L110.780685,19.4866044 L57.2411215,97.4105919 L15.5009346,97.4105919 L34.388785,130.670405 L10.7669782,165.05109 L81.3283489,165.05109 L96.5775701,137.300935 L117.619315,137.300935 L111.580685,165.05109 L173.588162,165.05109 L176.847352,137.300935 L188.332087,137.300935 L193.018069,97.4105919 L181.570093,97.4105919 L181.570093,97.4105919 Z" id="Fill-4" fill="#FFFFFE"></path>
            <path d="M109.181308,102.922118 L144.869782,37.9794393 L130.739564,102.922118 L109.181308,102.922118 Z M186.821184,102.922118 L175.337072,102.922118 L186.611215,11.5096573 L113.446729,11.5096573 L117.016822,20.1439252 L60.141433,102.922118 L24.9694704,102.922118 L40.8853583,130.948287 L21.2411215,159.539564 L78.0679128,159.539564 L93.317134,131.790031 L124.458567,131.790031 L118.421184,159.539564 L168.685981,159.539564 L171.945794,131.790031 L183.429907,131.790031 L186.821184,102.922118 L186.821184,102.922118 Z" id="Fill-5" fill="#18476B"></path>
        </g>
    </g>
</svg>