<?xml version="1.0" encoding="UTF-8"?>
<svg width="200px" height="200px" viewBox="0 0 200 200" version="1.1" xmlns="http://www.w3.org/2000/svg" xmlns:xlink="http://www.w3.org/1999/xlink">
    <!-- Generator: Sketch 56.3 (81716) - https://sketch.com -->
    <title>clarkson</title>
    <desc>Created with Sketch.</desc>
    <g id="clarkson" stroke="none" stroke-width="1" fill="none" fill-rule="evenodd">
        <g id="clarkson_BGD">
            <g id="Clarkson_knighthead_dark-background" transform="translate(14.000000, 0.000000)">
                <g id="Group-5">
                    <path d="M57.6276923,36.6041026 C60.8981197,34.5271795 64.5367521,32.9138462 68.4618803,31.8010256 C68.8547009,31.1135043 69.3374359,30.445812 69.9070085,29.8013675 C69.3986325,29.2047863 68.854359,28.7593162 68.5025641,28.4994872 C66.1548718,26.7664957 62.8211966,25.8119658 59.1155556,25.8119658 C49.2875214,25.8119658 41.5446154,32.0529915 37.2064957,36.6041026 L57.6276923,36.6041026 Z M22.4806838,144.166496 L22.4806838,90.1641026 C21.4259829,89.6540171 20.3873504,89.145641 19.3822222,88.6478632 C13.2003419,85.5846154 8.56957265,81.6160684 5.6174359,76.8512821 C2.73025641,72.191453 1.50666667,66.9268376 1.97982906,61.2041026 C2.86803419,50.4625641 9.88239316,38.5890598 21.7302564,27.7705983 C32.7894017,17.6721368 47.2034188,9.42803419 61.2765812,5.15111111 C68.2095726,3.04444444 74.4509402,1.97606838 79.8270085,1.97606838 C84.9894017,1.97606838 89.3490598,2.95623932 92.785641,4.88923077 C96.5788034,7.02358974 99.105641,10.2184615 100.092991,14.128547 C101.22359,18.6088889 100.149402,23.6307692 97.0676923,28.2687179 C96.762735,28.7275214 96.4358974,29.185641 96.0895726,29.64 C96.7364103,30.3490598 97.277265,31.0875214 97.7080342,31.8502564 C101.574017,32.9630769 105.156239,34.5589744 108.37641,36.6041026 L143.661538,36.6041026 L143.661538,97.8981197 C148.959658,100.259829 153.511453,102.42906 156.877607,104.197949 L168.18735,110.141197 L156.525128,115.357949 C150.646838,117.988034 146.304957,121.458462 143.697778,123.906667 C143.685812,123.917949 143.673846,123.929573 143.661538,123.940855 L143.661538,144.166496 L83.0711111,197.495043 L22.4806838,144.166496 L22.4806838,144.166496 Z" id="Fill-1" fill="#0D433B"></path>
                    <path d="M41.9411966,34.7237607 C46.1750427,31.1620513 52.0998291,27.6923077 59.1155556,27.6923077 C62.4140171,27.6923077 65.3449573,28.5124786 67.3712821,30.0013675 C67.3264957,30.0673504 67.2823932,30.1329915 67.2393162,30.1993162 C63.5935043,31.2964103 60.1894017,32.8133333 57.0882051,34.7237607 L41.9411966,34.7237607 Z M79.8270085,0.0957264957 C74.265641,0.0957264957 67.8403419,1.19145299 60.7299145,3.35213675 C46.3979487,7.70735043 31.7210256,16.1015385 20.4622222,26.3822222 C8.26290598,37.5213675 1.03350427,49.8331624 0.105982906,61.0492308 C-0.401367521,67.1822222 0.915213675,72.8321368 4.01880342,77.8417094 C7.1582906,82.9087179 12.0461538,87.1111111 18.5473504,90.3326496 C19.2208547,90.6663248 19.9066667,91.0034188 20.6003419,91.3415385 L20.6003419,145.01641 L83.0711111,199.999658 L145.54188,145.01641 L145.54188,124.763761 C148.084786,122.459829 152.052991,119.418803 157.292991,117.07453 L172.487863,110.276581 L157.752479,102.533675 C154.593162,100.873162 150.404786,98.8659829 145.54188,96.68 L145.54188,34.7237607 L108.915897,34.7237607 C105.86735,32.8464957 102.521368,31.3473504 98.9381197,30.2540171 C98.7880342,30.0218803 98.6287179,29.7924786 98.4611966,29.565812 C98.5196581,29.4803419 98.577094,29.3948718 98.6338462,29.3094017 C102.01265,24.2242735 103.17812,18.6697436 101.916239,13.6687179 C100.8,9.24615385 97.9613675,5.64376068 93.7076923,3.25059829 C89.9863248,1.15726496 85.3165812,0.0957264957 79.8270085,0.0957264957 Z M33.0533333,38.4844444 L58.1818803,38.4844444 C61.417094,36.3613675 65.2379487,34.5863248 69.7521368,33.397265 C70.3432479,32.111453 71.2659829,30.9887179 72.3295726,30.0235897 C71.5764103,28.6123077 70.4297436,27.5849573 69.6194872,26.9870085 C66.9507692,25.0164103 63.2205128,23.9316239 59.1155556,23.9316239 C47.5169231,23.9316239 38.7425641,31.9494017 34.5442735,36.7282051 C34.0194872,37.325812 33.5237607,37.9107692 33.0533333,38.4844444 L33.0533333,38.4844444 Z M79.8270085,3.85641026 C84.6625641,3.85641026 88.7121368,4.75555556 91.8635897,6.52820513 C95.1965812,8.40376068 97.4119658,11.1911111 98.2697436,14.5887179 C99.2690598,18.5487179 98.2861538,23.037265 95.5015385,27.2280342 C94.9210256,28.1022222 94.2666667,28.9562393 93.545641,29.7870085 C94.7333333,30.814359 95.7709402,32.0304274 96.4092308,33.4410256 C100.853333,34.6300855 104.625299,36.3863248 107.822222,38.4844444 L141.781197,38.4844444 L141.781197,99.1206838 C147.356581,101.585641 152.316923,103.925812 156.003077,105.862564 L163.886496,110.005128 L155.757265,113.641709 C149.64,116.378462 145.123077,119.988718 142.41094,122.535726 C142.207521,122.726496 141.996581,122.905983 141.781197,123.079316 L141.781197,143.316581 L83.0711111,194.990085 L24.3610256,143.316581 L24.3610256,88.982906 C22.9945299,88.3271795 21.6147009,87.6553846 20.217094,86.9630769 C14.354188,84.0581197 9.97982906,80.322735 7.2157265,75.8611966 C4.54564103,71.5511111 3.41435897,66.6717949 3.85367521,61.3589744 C4.70290598,51.0923077 11.5018803,39.6567521 22.9982906,29.1593162 C33.8574359,19.2434188 48.0088889,11.1483761 61.8235897,6.95042735 C68.5788034,4.8974359 74.6362393,3.85641026 79.8270085,3.85641026 L79.8270085,3.85641026 Z" id="Fill-3" fill="#FFFFFE"></path>
                    <path d="M81.7664957,24.9637607 L83.0711111,24.5511111 L84.3760684,24.9637607 C84.4929915,25.0006838 87.1880342,25.8625641 89.925812,27.3405128 C100.24,15.9630769 92.8358974,2.04786325 63.0813675,11.0899145 C23.511453,23.1148718 -12.7186325,65.8147009 22.1381197,83.0861538 C26.985641,85.4882051 31.617094,87.6516239 36.0779487,89.6 C35.7863248,88.2198291 35.6358974,86.7955556 35.6358974,85.3415385 C35.6358974,80.8974359 37.0297436,77.0940171 39.2663248,74.7052991 C39.3702564,74.5124786 39.4841026,74.3548718 39.608547,74.2386325 C39.6577778,72.9425641 39.8529915,70.0136752 40.6174359,66.2680342 C22.4160684,60.1148718 15.8017094,51.5094017 31.2936752,33.8731624 C48.5261538,14.2557265 70.0287179,17.6382906 75.8912821,27.5176068 C75.9080342,27.5080342 75.9251282,27.4984615 75.9418803,27.4892308 C78.7709402,25.9189744 81.645812,25.0020513 81.7664957,24.9637607" id="Fill-4" fill="#FAC922"></path>
                </g>
                <path d="M92.8092308,172.411282 C92.8092308,177.137436 88.4184615,180.968889 83.0020513,180.968889 C77.5859829,180.968889 73.1948718,177.137436 73.1948718,172.411282 C73.1948718,167.685128 77.5859829,163.853675 83.0020513,163.853675 C88.4184615,163.853675 92.8092308,167.685128 92.8092308,172.411282 Z M62.4724786,164.442735 C58.6211966,164.442735 55.4988034,161.718291 55.4988034,158.357607 C55.4988034,154.996923 58.6211966,152.272137 62.4724786,152.272137 C66.3241026,152.272137 69.4461538,154.996923 69.4461538,158.357607 C69.4461538,161.718291 66.3241026,164.442735 62.4724786,164.442735 Z M45.9928205,150.939829 C43.0235897,150.939829 40.6164103,148.839316 40.6164103,146.248205 C40.6164103,143.657436 43.0235897,141.556923 45.9928205,141.556923 C48.9620513,141.556923 51.3688889,143.657436 51.3688889,146.248205 C51.3688889,148.839316 48.9620513,150.939829 45.9928205,150.939829 Z M124.17812,133.56547 C119.452308,136.78188 115.272821,139.625983 111.573333,142.143932 L111.573333,135.351111 L108.127179,137.064615 L108.127179,144.488889 C101.953504,148.690256 97.3025641,151.855385 93.8034188,154.236581 L93.1189744,154.702564 L93.214359,154.54359 L54.5695726,135.403077 L54.5695726,137.889231 C54.5695726,137.889231 64.2940171,145.781538 72.3391453,154.236581 C66.2919658,150.121709 56.8174359,143.673846 41.9644444,133.56547 C32.2307692,135.493333 28.6878632,141.360684 28.6878632,141.360684 L83.0711111,189.226667 L92.3729915,180.917607 L92.362735,180.900513 C94.7661538,178.726838 96.2553846,175.723761 96.2553846,172.411282 C96.2553846,167.751111 93.3046154,163.708376 89.0099145,161.720684 L124.887179,137.305299 C131.597949,139.037607 134.236923,142.819829 134.476239,143.181538 C134.476239,143.181538 134.61094,143.404786 134.653333,143.493333 C134.695726,143.58188 134.765812,143.727521 134.765812,143.727521 L137.454701,141.360684 C137.454701,141.360684 133.911795,135.493333 124.17812,133.56547 L124.17812,133.56547 Z" id="Fill-6" fill="#FAC922"></path>
                <path d="M90.6905983,16.5022222 C89.9271795,13.4782906 85.8663248,11.6735043 79.8273504,11.6735043 C87.8263248,13.8403419 89.7480342,17.7876923 88.6899145,23.3439316 C90.5104274,20.7931624 91.1552137,18.342906 90.6905983,16.5022222" id="Fill-7" fill="#FFFFFE"></path>
                <path d="M126.083077,97.1791453 L125.829744,117.376752 C128.353162,118.542222 130.550427,119.588376 132.273846,120.443419 C134.653675,121.624274 137.512479,121.200342 139.449231,119.38188 C142.358291,116.650256 147.29094,112.689573 153.990427,109.692308 C147.501538,106.282393 136.931624,101.581197 126.083077,97.1791453" id="Fill-8" fill="#FAC922"></path>
                <path d="M122.064274,76.5333333 L122.085812,74.9521368 C122.085812,74.9521368 122.079658,42.8871795 92.7138462,37.022906 C92.7189744,36.9767521 92.7254701,36.9261538 92.7302564,36.8813675 C93.2652991,32.3128205 83.0711111,29.0888889 83.0711111,29.0888889 C83.0711111,29.0888889 72.8776068,32.3128205 73.4123077,36.8813675 C73.4164103,36.9182906 73.4211966,36.9596581 73.4259829,36.9976068 C43.9254701,42.7907692 43.9182906,74.9521368 43.9182906,74.9521368 C43.9182906,74.9524786 43.9182906,74.9524786 43.9182906,74.9524786 L43.9182906,74.9521368 L43.9405128,76.5866667 C41.662906,77.497094 39.962735,81.0697436 39.962735,85.3415385 C39.962735,89.6324786 41.5846154,93.3524786 44.2075214,96.1866667 L44.5565812,121.779487 C44.5565812,124.129231 45.888547,126.275897 47.994188,127.318632 L83.0711111,144.691282 L118.009915,127.318632 C120.115556,126.275897 121.447521,124.129231 121.447521,121.779487 L121.79453,96.3350427 C124.499487,93.482735 126.179829,89.7083761 126.179829,85.3415385 C126.179829,80.9839316 124.41094,77.3521368 122.064274,76.5333333" id="Fill-9" fill="#FAC922"></path>
                <path d="M103.09094,101.438632 C92.1148718,98.7094017 89.6300855,94.3278632 83.0711111,94.3278632 L83.0711111,140.842735 L116.480342,124.230427 C117.418462,123.765812 118.001368,122.826325 118.001368,121.779487 L118.063932,117.658462 L118.151795,99.2598291 C113.905641,101.834188 108.469402,102.776068 103.09094,101.438632" id="Fill-10" fill="#0D433B"></path>
                <path d="M118.607521,74.9589744 C118.607179,74.8683761 118.519316,65.7781197 113.996581,56.9206838 C109.454359,48.0239316 102.169915,42.5244444 92.2854701,40.4861538 C91.6071795,45.8239316 90.4902564,54.2051282 89.7702564,59.3070085 C89.4786325,61.3760684 88.1507692,63.2218803 86.1476923,64.3466667 L83.0711111,66.074188 L83.0618803,66.0499145 C83.0618803,69.1832479 83.0618803,71.5025641 83.0618803,72.1145299 C83.0618803,77.054359 86.7729915,79.9401709 91.7606838,77.8276923 C97.1733333,75.5353846 101.190427,73.8297436 104.81094,73.2259829 C108.322051,72.6406838 110.445128,73.3326496 111.913846,74.4622222 C109.771282,74.3846154 107.265641,74.8991453 104.512821,75.9350427 C97.5292308,78.5630769 89.9223932,85.174359 86.0478632,82.0916239 C86.2817094,83.4553846 87.1545299,89.7931624 92.7292308,91.2478632 C97.6311111,92.5268376 101.70735,92.9087179 109.824274,92.2348718 C116.157265,91.7090598 118.011966,81.8933333 118.608547,78.814359 C118.608547,77.8550427 118.607521,75.8444444 118.607521,74.9589744" id="Fill-11" fill="#0D433B"></path>
                <path d="M87.2964103,86.4441026 L87.2960684,86.4441026 C87.2974359,86.4471795 87.2988034,86.4499145 87.3005128,86.4526496 C87.2991453,86.4499145 87.2977778,86.4468376 87.2964103,86.4441026" id="Fill-12" fill="#FFFFFE"></path>
                <path d="M109.824274,92.2348718 C101.70735,92.9087179 97.6311111,92.5268376 92.7292308,91.2478632 C90.1186325,90.5668376 88.5394872,88.8147009 87.5733333,87.0037607 C88.848547,89.6297436 89.5210256,91.6403419 93.8738462,92.9261538 C97.8287179,94.094359 103.573675,95.3350427 109.337094,96.0345299 C115.495726,96.7818803 118.608547,91.6150427 118.608547,78.814359 C118.011966,81.8933333 116.157265,91.7090598 109.824274,92.2348718" id="Fill-13" fill="#FFFFFE"></path>
                <path d="M125.146667,79.9295726 C124.607521,78.1206838 123.385299,76.9251282 122.064615,76.5169231 L121.945299,85.2417094 C124.293675,84.7329915 125.842051,82.262906 125.146667,79.9295726" id="Fill-14" fill="#FFFFFE"></path>
                <path d="M44.1100855,89.0147009 L43.9405128,76.5866667 C41.662906,77.497094 39.962735,81.0697436 39.962735,85.3415385 C39.962735,85.6919658 39.974359,86.0382906 39.9955556,86.3805128 C40.5254701,87.9360684 42.2393162,88.814359 44.1100855,89.0147009" id="Fill-15" fill="#FFFFFE"></path>
                <path d="M112.174359,80.6235897 C112.174359,80.6235897 111.89265,81.4013675 111.619487,82.1712821 C110.720684,84.3251282 109.30188,87.9849573 105.705299,88.3928205 C102.382906,88.7699145 96.5155556,88.5022222 95.231453,88.2123077 C93.7449573,87.8769231 92.785641,87.0338462 92.785641,85.5753846 C96.9401709,85.2037607 102.862222,80.1617094 112.174359,80.6235897" id="Fill-16" fill="#FFFFFE"></path>
                <path d="M73.4129915,91.2478632 C78.9880342,89.7931624 79.8605128,83.4553846 80.0947009,82.0916239 C76.2198291,85.174359 68.6133333,78.5630769 61.6294017,75.9350427 C56.1500855,73.8728205 51.6475214,73.8735043 49.0444444,76.5080342 C48.4317949,77.1282051 47.9241026,77.894359 47.5340171,78.814359 C48.1305983,81.8933333 49.9852991,91.7090598 56.3179487,92.2352137 C64.4352137,92.9087179 68.511453,92.5268376 73.4129915,91.2478632" id="Fill-17" fill="#0D433B"></path>
                <path d="M73.4129915,91.2478632 C68.511453,92.5268376 64.4352137,92.9087179 56.3179487,92.2348718 C49.9852991,91.7090598 48.1305983,81.8933333 47.5340171,78.814359 C47.5340171,91.6150427 50.6464957,96.7818803 56.8054701,96.0345299 C62.568547,95.3350427 68.3135043,94.094359 72.2683761,92.9261538 C76.6215385,91.6403419 77.2940171,89.6297436 78.5688889,87.0037607 C77.6034188,88.8147009 76.0239316,90.5668376 73.4129915,91.2478632" id="Fill-18" fill="#FFFFFE"></path>
                <path d="M53.9682051,80.6235897 C53.9682051,80.6235897 54.2495726,81.4013675 54.5230769,82.1712821 C55.4218803,84.3251282 56.8406838,87.9849573 60.437265,88.3928205 C63.7596581,88.7699145 69.6270085,88.5022222 70.911453,88.2123077 C72.3976068,87.8769231 73.3569231,87.0338462 73.3569231,85.5753846 C69.202735,85.2037607 63.28,80.1617094 53.9682051,80.6235897" id="Fill-19" fill="#FFFFFE"></path>
                <path d="M71.8471795,98.294359 L71.8471795,135.26188 L77.6157265,138.130256 L77.6157265,95.4769231 C75.8478632,96.2147009 74.085812,97.2304274 71.8471795,98.294359" id="Fill-20" fill="#0D433B"></path>
                <path d="M63.0512821,101.438632 C62.6232479,101.545299 62.1948718,101.632137 61.7664957,101.709744 L61.7664957,130.249231 L67.5347009,133.117607 L67.5347009,100.091966 C66.2082051,100.565128 64.7302564,101.021538 63.0512821,101.438632" id="Fill-21" fill="#0D433B"></path>
                <path d="M51.6854701,100.976752 L51.6854701,125.236581 L57.4536752,128.104957 L57.4536752,102.027692 C55.4533333,101.961368 53.5083761,101.599658 51.6854701,100.976752" id="Fill-22" fill="#0D433B"></path>
                <path d="M133.182906,103.916239 C137.93812,107.733333 140.131282,111.946325 138.831111,115.246154 C140.802393,113.551453 143.312479,111.632821 146.330256,109.790769 C142.478632,107.966838 137.967521,105.955214 133.182906,103.916239" id="Fill-23" fill="#FFFFFE"></path>
                <path d="M52.0540171,158.357607 C52.0540171,154.263248 55.1586325,150.807863 59.4235897,149.669402 L50.3135043,143.469744 C50.9733333,144.247521 51.3688889,145.206154 51.3688889,146.248205 C51.3688889,148.839316 48.9620513,150.939829 45.9928205,150.939829 C43.0235897,150.939829 40.6164103,148.839316 40.6164103,146.248205 C40.6164103,143.657436 43.0235897,141.556923 45.9928205,141.556923 C46.7059829,141.556923 47.385641,141.680684 48.0082051,141.901197 L41.2553846,137.305641 C34.545641,139.037265 31.9066667,142.818462 31.6663248,143.181538 L31.4095726,143.634872 L53.8232479,163.426667 C52.7063248,161.978462 52.0540171,160.23453 52.0540171,158.357607" id="Fill-24" fill="#FFFFFE"></path>
                <path d="M70.2639316,73.4441026 C63.9244444,68.1904274 63.3996581,53.9039316 62.5955556,44.9169231 C58.1709402,47.7784615 54.6307692,51.7818803 52.0071795,56.9206838 C49.52,61.7917949 48.3757265,66.7299145 47.8478632,70.2047863 C55.3750427,61.5059829 64.8639316,72.8762393 70.2639316,73.4441026" id="Fill-25" fill="#FFFFFE"></path>
                <path d="M73.951453,40.7148718 C74.6352137,46.0618803 75.6847863,54.4345299 76.3723077,59.3070085 C76.6639316,61.3760684 77.9917949,63.2218803 79.9948718,64.3466667 L83.0711111,66.074188 L83.0711111,32.594188 C83.0711111,32.594188 73.3917949,36.1022222 73.951453,40.7148718" id="Fill-26" fill="#FFFFFE"></path>
                <path d="M79.0430769,25.9907692 C80.5623932,25.3480342 81.6916239,24.9873504 81.7664957,24.9637607 L83.0711111,24.5511111 L84.3760684,24.9637607 C84.4297436,24.9811966 85.0352137,25.174359 85.9374359,25.5217094 C88.785641,18.9688889 83.4311111,13.8748718 76.3545299,13.2188034 C77.9145299,13.8037607 79.8796581,15.9179487 80.254359,18.0929915 C75.3610256,14.671453 67.6588034,13.5309402 59.1193162,16.1145299 C64.8817094,16.1152137 70.2594872,17.742906 74.2622222,20.6981197 C76.3176068,22.2150427 77.92,24.0112821 79.0430769,25.9907692" id="Fill-27" fill="#FFFFFE"></path>
                <path d="M15.1408547,51.1268376 C13.1569231,54.848547 11.9319658,58.525812 11.6441026,62.0030769 C11.0123077,69.6444444 15.0642735,75.6854701 23.6875214,79.9582906 C24.568547,80.3948718 25.4403419,80.8211966 26.3080342,81.2423932 C20.5261538,74.0184615 13.4266667,62.7008547 15.1408547,51.1268376" id="Fill-28" fill="#FFFFFE"></path>
                <polyline id="Fill-29" fill="#FFFFFE" points="135.476923 158.505983 133.814359 158.505983 133.814359 157.717949 138.070085 157.717949 138.070085 158.505983 136.407521 158.505983 136.407521 162.732991 135.476923 162.732991 135.476923 158.505983"></polyline>
                <polyline id="Fill-30" fill="#FFFFFE" points="143.378462 162.732991 143.371282 159.408547 141.723761 162.16 141.308034 162.16 139.660513 159.451624 139.660513 162.732991 138.771966 162.732991 138.771966 157.717949 139.538462 157.717949 141.530598 161.042051 143.486154 157.717949 144.25265 157.717949 144.260171 162.732991 143.378462 162.732991"></polyline>
            </g>
        </g>
    </g>
</svg>