<?xml version="1.0" encoding="UTF-8"?>
<svg width="200px" height="200px" viewBox="0 0 200 200" version="1.1" xmlns="http://www.w3.org/2000/svg" xmlns:xlink="http://www.w3.org/1999/xlink">
    <!-- Generator: Sketch 54.1 (76490) - https://sketchapp.com -->
    <title>minn-st-moorhead</title>
    <desc>Created with Sketch.</desc>
    <g id="minn-st-moorhead" stroke="none" stroke-width="1" fill="none" fill-rule="evenodd">
        <g id="minn-st-moorhead_BGD" fill="#FFFFFF">
            <g id="minn-st-moorhead" transform="translate(0.000000, 16.000000)">
                <g id="g10" transform="translate(100.000000, 84.674370) scale(-1, 1) rotate(-180.000000) translate(-100.000000, -84.674370) translate(0.000000, 0.674370)">
                    <g id="g12">
                        <path d="M29.1642677,87.7856964 C30.3998232,88.3106689 31.1269519,88.5447723 32.4226175,88.8941672 C33.9528264,89.3069285 34.8521883,89.3843762 36.4067758,89.6941672 C38.3611872,97.5586334 40.2443994,101.952033 44.5840253,108.796477 C49.8164124,117.048182 53.783321,121.447742 61.8725617,126.92893 C70.1612304,132.544771 75.8426384,134.739711 85.7027041,136.471724 C95.9190295,138.266223 102.249502,138.010998 112.276345,135.354892 C112.788556,136.797356 113.005058,137.647521 113.23124,139.161273 C113.447742,140.612538 113.401097,141.450382 113.505828,142.913968 C110.216939,140.952252 107.745652,140.492846 103.92695,140.766553 C98.2371813,141.174914 94.353353,143.33905 91.3100087,148.162813 C86.2307569,142.693946 81.9894369,140.320349 74.7221984,138.619138 C67.3380841,136.890646 62.3542339,137.190756 55.3306917,140.051042 C54.3358402,131.701647 52.4552682,126.717709 47.3875456,120.009678 C41.9977107,112.875685 37.3366767,109.455663 28.9305163,106.410558 C30.4149607,103.197357 30.937469,101.12035 31.0333986,97.5823958 C31.1386571,93.6941671 30.6916604,91.362814 29.1642677,87.7856964 L29.1642677,87.7856964" id="path14" fill-rule="nonzero"></path>
                        <path d="M41.5466656,89.9476325 C45.4854114,90.2239801 47.8282936,90.0065984 51.6175125,88.8941672 C55.6363462,87.7135292 57.8575123,86.5425721 61.1612746,83.9679627 C61.3603505,90.4448822 62.2094594,94.2151792 64.67617,100.206818 C67.5557299,107.200877 70.0240247,111.144552 75.6569398,116.191856 C80.8759496,120.869524 84.6596238,122.808358 91.3100087,125.020019 C97.9405916,127.224639 102.12805,127.706047 109.095707,127.182395 C109.620239,128.126729 109.906268,128.667103 110.367434,129.644881 C110.808358,130.576894 111.016059,131.124309 111.322329,132.108248 C104.689106,133.722329 100.695267,134.014518 93.8798656,133.608798 C84.0191838,133.020899 78.1988979,131.283605 69.5826605,126.451042 C62.5731998,122.519689 58.9164342,119.438501 53.6956642,113.32893 C47.0194048,105.517269 44.1102739,99.8987874 41.5466656,89.9476325 L41.5466656,89.9476325" id="path16" fill-rule="nonzero"></path>
                        <path d="M105.914189,89.0059384 C106.118369,88.4840462 106.289986,88.1988977 106.656103,87.7746953 C107.134871,87.2184797 107.483386,86.9496128 108.13201,86.6071706 C104.644222,82.9634303 102.818919,80.7398 99.955113,76.5869288 C95.8380614,70.617468 94.3471924,66.3287112 91.3100087,60.125147 C87.7808559,52.9170504 83.6249044,45.5349604 77.2923193,37.219801 C74.0212083,32.9259398 65.8993163,23.5688443 55.7982824,21.7116826 C44.1164345,19.565148 36.9472378,20.0378433 27.5288882,26.0055439 C19.8225738,30.8910883 15.9068863,35.7140585 13.04352,44.3773806 C11.3964354,49.362287 11.0743232,52.4999767 11.4084926,57.7389645 C11.7378215,62.9115056 12.2696587,66.0330897 14.6788995,70.6225725 C16.9905386,75.0240685 18.9435419,77.3342995 22.8565011,80.4046625 C28.9225955,85.1625941 33.8370069,86.7904049 41.5466656,86.8457624 C47.9407689,86.8922311 51.9674354,86.1086887 57.4336619,82.790493 C62.4467311,79.7462686 65.0010105,77.0145635 67.7135297,71.8151797 C64.6579522,74.848755 62.2978202,76.2049706 58.134652,77.3016482 C51.6990086,78.9985459 46.6054994,78.4739254 41.3132663,74.4396021 C37.6636294,71.6566759 36.0451476,69.0666649 34.7713963,64.6576001 C33.4271499,60.0061591 33.4849717,56.763915 35.238547,52.2507358 C37.5020453,46.4246413 40.7917262,43.1129582 46.6866435,41.0375347 C53.8559282,38.5128263 59.0064672,41.2954005 65.8443108,44.6170286 C74.6393821,48.8861594 77.0197561,55.11375 83.3250584,62.5849049 C88.2006579,68.3618905 90.0409218,72.397886 95.0477424,78.0187439 C99.0679843,82.530955 101.387016,85.0278527 105.914189,89.0059384 L105.914189,89.0059384" id="path18" fill-rule="nonzero"></path>
                        <path d="M42.1087778,86.4078306 C41.9237833,86.4078306 41.7381728,86.4071266 41.5497459,86.4057184 C33.8527604,86.3503609 29.0326065,84.6895468 23.1280962,80.0580838 C19.2216497,76.9936174 17.3387894,74.7404162 15.0687785,70.417688 C12.7203517,65.9450809 12.1771614,62.8833428 11.8474805,57.7107136 C11.5071504,52.3713958 11.8839161,49.2883596 13.4612098,44.5156425 C16.2616498,36.0430354 20.0041359,31.2967209 27.7643997,26.3772051 C37.4546085,20.2375352 44.7806369,20.1337729 55.7188105,22.1448619 C65.726731,23.9841578 73.8950917,33.4862918 76.9423963,37.4865557 C83.8741453,46.5882497 88.0510429,54.4695256 90.9148492,60.3186784 C91.7139691,61.9513296 92.4057183,63.4509115 93.0666643,64.8827267 C94.9306907,68.9222425 96.5394915,72.4102952 99.5925168,76.8368738 C102.32871,80.8051025 104.139931,83.0476547 107.42618,86.5050803 C107.005498,86.7728911 106.695707,87.0540792 106.32255,87.4872585 C106.076125,87.7736392 105.906268,88.0087987 105.759293,88.282506 C101.573595,84.5753994 99.3293705,82.1630783 95.3768953,77.7258506 C92.7357513,74.7617143 91.0098987,72.2817144 89.1837161,69.657204 C87.5997338,67.3803283 85.961538,65.026093 83.6616041,62.3006365 C81.920702,60.2392944 80.4946955,58.2910436 79.1154216,56.4057192 C75.559338,51.5484256 72.4886231,47.3532221 66.036522,44.2199329 L65.1595143,43.7933542 C58.6860271,40.6391189 53.5726279,38.1473258 46.5404609,40.6229253 C40.570296,42.7237833 37.1772048,46.0471716 34.828778,52.0916159 C33.0727384,56.6098996 32.9472379,59.9305596 34.348514,64.7796683 C35.6899441,69.4221325 37.4425513,72.0424184 41.0465116,74.7899651 C46.151638,78.6825943 51.2961043,79.5606581 58.2466872,77.7276108 C61.5091734,76.8677649 63.725587,75.8264447 66.0000864,73.9669068 C63.7533977,77.6484909 61.3545419,79.8948275 57.2050151,82.4140793 C51.7354443,85.7350034 47.7588547,86.4078306 42.1087778,86.4078306 L42.1087778,86.4078306 Z M45.0687778,20.0914406 C39.0686899,20.0914406 33.6895041,21.5814296 27.2933767,25.6343228 C19.4378873,30.6146527 15.4623538,35.6565888 12.6258303,44.2395589 C11.0072605,49.1361044 10.6205498,52.2965003 10.9691526,57.7671273 C11.3071064,63.0689533 11.8664023,66.2118355 14.2893726,70.8268409 C16.5982834,75.2237605 18.614213,77.6351136 22.5849059,80.7508011 C28.6636737,85.5187657 33.6249057,87.2287767 41.5435853,87.2858064 C47.652276,87.322242 51.833046,86.7052124 57.6619568,83.1669066 C62.7244869,80.0928473 65.3592943,77.279646 68.1036727,72.018392 L67.4030346,71.5026605 C64.3914615,74.4932875 62.1122097,75.798634 58.0225288,76.8767418 C51.2741021,78.6533754 46.5099218,77.8482709 41.580021,74.0903832 C38.1036734,71.4384141 36.4920563,69.0281171 35.1942785,64.5351799 C33.8534645,59.8972042 33.9728044,56.724399 35.648756,52.4092396 C37.8929804,46.6333102 41.1331123,43.4588328 46.8327381,41.4532003 C53.5172704,39.0979088 58.484927,41.519911 64.7734197,44.5854334 L65.6525396,45.0130682 C71.907677,48.0493717 74.918546,52.162727 78.4055426,56.9258512 C79.7933533,58.8225288 81.2286888,60.7831008 82.9885128,62.8682052 C85.2623081,65.5620666 86.8887107,67.8998443 88.4611639,70.1598222 C90.3040681,72.8070389 92.0440021,75.3073689 94.7194696,78.3119892 C98.834761,82.9314831 101.110669,85.3702949 105.62288,89.3359714 L106.094607,89.7504928 L106.32343,89.1661144 C106.510888,88.6882266 106.653463,88.4506028 106.989656,88.062484 C107.42354,87.5581056 107.72541,87.3188097 108.337071,86.9966975 L108.852803,86.7247503 L108.449722,86.3029241 C104.953133,82.6488868 103.12871,80.4131993 100.316829,76.3369838 C97.3069283,71.9726275 95.7122088,68.5166099 93.8666643,64.5138818 C93.203078,63.075818 92.5078085,61.5700755 91.7060483,59.9312636 C88.8237602,54.0463793 84.620812,46.1155544 77.6426823,36.9541025 C74.5331555,32.8723424 66.1878091,23.1735088 55.8776664,21.2788554 C51.9011648,20.5482943 48.3893497,20.0914406 45.0687778,20.0914406 L45.0687778,20.0914406 Z" id="path20" fill-rule="nonzero"></path>
                        <path d="M2.99711324,40.0835193 C-1.32769194,31.6418914 -0.178767872,22.9414296 6.26822427,15.9860062 C12.7378655,9.00576435 20.8838719,8.3591197 30.0986571,10.7370734 C35.4998451,12.1311328 38.6252136,13.8648181 42.4814071,17.8939489 C38.2518802,18.5162592 35.8818033,19.2784154 31.967788,20.9969632 C29.0037396,22.2978212 27.3332446,23.1349609 24.7252799,25.0515285 C20.5799775,22.5320126 16.914499,22.2363031 12.3425299,23.8593613 C5.46204607,26.3032777 1.58518808,32.9197792 2.99711324,40.0835193 L2.99711324,40.0835193" id="path22" fill-rule="nonzero"></path>
                        <path d="M2.27241358,37.3721443 C-0.546273254,29.917799 0.965350911,22.3542349 6.59103174,16.2850601 C12.2851482,10.1412539 19.7215397,8.51038043 29.9886461,11.163036 C35.0993171,12.4814078 38.1246195,14.1422219 41.5679638,17.5893505 C37.9988549,18.164224 35.6666218,18.8919687 31.7908023,20.5940589 C28.8331786,21.8921887 27.1521225,22.745786 24.7012535,24.5255879 C20.6068202,22.1122107 16.8499006,21.7928267 12.1957313,23.4436958 C5.99800205,25.6455879 2.19437618,31.1499222 2.27241358,37.3721443 Z M21.2668862,9.05355313 C15.0502086,9.05355313 10.0711989,11.2362593 5.94575123,15.6875684 C-0.579276553,22.7265121 -1.79696365,31.6910883 2.60588772,40.2842674 L3.42924524,39.9989429 C2.07233438,33.1167428 5.79860932,26.6508244 12.4900327,24.2729147 C17.0235419,22.665698 20.5022657,22.9984593 24.4967211,25.4283822 L24.7483382,25.5816935 L24.9855219,25.4073481 C27.6179531,23.4718586 29.2632776,22.6649939 32.1448617,21.4002195 C36.2352466,19.6039599 38.5680958,18.915027 42.5453895,18.3305606 L43.3883377,18.2054121 L42.7994709,17.5904066 C38.970032,13.5883825 35.7930904,11.7519029 30.2086681,10.3100547 C26.9685362,9.47502727 23.9978872,9.05355313 21.2668862,9.05355313 L21.2668862,9.05355313 Z" id="path24" fill-rule="nonzero"></path>
                        <path d="M167.94191,133.608798 C167.635639,126.478325 165.965232,122.102527 161.633439,116.43036 C157.017378,110.386796 152.826399,107.544992 145.513748,105.455663 C148.683825,98.8180393 149.980194,94.7097886 151.090865,87.4385017 C152.461162,78.4553556 152.250821,73.0146516 150.24158,64.1522536 C147.747411,53.1511538 144.778874,46.8100318 137.516388,38.1790089 C132.352032,32.0413633 128.670624,28.9920345 121.683605,25.0515285 C111.448182,19.2835199 104.22442,17.3817377 92.4778855,17.6553571 C82.8296569,17.8809236 77.0338375,19.2474363 68.4887112,23.7335088 C65.9113735,22.0664461 64.3468411,21.2496364 61.4796904,20.155071 C58.7998225,19.1305606 57.2033429,18.7266002 54.373948,18.2522328 L62.1064011,8.11193819 C68.3292392,10.1983716 72.598634,10.3258963 78.9276988,8.58979957 C85.0361255,6.91384801 88.5139692,4.74457194 92.7119889,0 C100.616939,3.20613413 101.073705,4.40215611 113.336851,7.27998222 C120.972494,9.07106688 127.147192,9.08004378 134.999337,12.883696 C145.156432,17.8066442 149.974034,22.8692624 156.961052,31.7333325 C160.772713,36.568712 161.387895,40.3987669 165.371173,45.0931562 C168.321228,48.5684476 170.23982,50.3392727 173.783054,53.2058073 C171.519468,58.4227048 171.278324,62.2927157 172.84752,67.7588542 C174.468643,73.4054987 176.870403,76.6212522 181.725848,79.9267747 C177.952031,84.2481827 176.43916,87.7980176 176.118807,93.5269504 C175.864462,98.0778853 176.396915,100.911769 178.454561,104.978655 C175.552031,106.485366 172.679424,108.973375 171.913747,110.2275 C169.012097,114.979095 166.306707,121.680085 167.94191,133.608798 L167.94191,133.608798" id="path26"></path>
                        <path d="M88.6275005,48.2553123 C86.4301849,44.0095919 84.9742553,41.7065776 82.1585898,37.8420233 C78.8506911,33.3023534 76.779404,30.8622215 72.8265768,26.8726066 C78.6086669,24.0253459 82.3264226,23.0476562 88.7401518,22.4271061 C96.5289305,21.6739269 101.22948,22.326072 108.670624,24.7445538 C117.895707,27.7420455 123.295046,30.6112204 129.880745,37.7303401 C136.2297,44.5939703 138.993176,49.8164124 141.074584,58.9314837 C143.830139,71.0021544 142.796916,79.4317252 137.102747,90.4246402 C138.264463,83.0449264 137.907147,78.3983259 135.467543,71.3372919 C132.205937,61.9001085 128.22882,56.3582824 119.700767,51.1657633 C109.304288,44.8370506 100.039601,44.0219131 88.6275005,48.2553123 L88.6275005,48.2553123" id="path28" fill-rule="nonzero"></path>
                        <path d="M173.359732,113.52343 C173.784814,112.195377 174.950931,110.836521 175.268642,110.501207 C175.894385,109.840261 176.286904,109.493507 177.071943,109.045542 C180.471723,109.667764 182.392955,110.310228 185.464462,111.897027 C189.074583,113.763694 190.963252,115.22992 193.827058,118.113968 C190.385034,115.563473 188.012317,114.488006 183.829258,113.567434 C179.84158,112.689986 177.356211,112.687346 173.359732,113.52343 L173.359732,113.52343" id="path30" fill-rule="nonzero"></path>
                        <path d="M192.44884,131.324089 C193.431898,126.551372 188.418917,122.367434 184.495485,122.03212 C179.883824,121.637841 174.950931,122.255663 170.235419,125.622879 L170.072603,125.838501 C170.113087,123.766774 170.178214,124.159293 170.815397,120.576455 C171.124308,118.83212 171.499226,117.870184 172.337069,116.319469 C176.24378,114.987896 178.862042,114.93245 182.904286,115.763253 C189.169632,117.050822 193.408136,119.390096 196.44532,125.020019 C199.84774,131.327609 200.474362,137.809458 195.977993,143.390976 C191.902305,148.450601 185.873703,148.788555 180.090645,148.401316 C184.601095,147.893506 187.321447,148.045761 189.669522,144.822879 C192.027278,141.585915 192.15225,137.999557 190.136849,134.562813 C190.136849,134.562813 191.918147,133.899227 192.44884,131.324089 L192.44884,131.324089" id="path32" fill-rule="nonzero"></path>
                        <path d="M161.058742,123.264243 C158.608577,120.039601 156.822878,118.442241 153.456542,116.191856 C149.295486,113.410778 146.033,113.6308 141.541031,111.420899 C136.198896,108.790316 132.420679,107.992077 128.457643,103.546752 C125.011218,99.6805256 124.948732,96.243782 122.617379,91.6171594 C121.069304,88.5465324 121.171394,86.0784137 118.645542,83.7445084 C115.82486,81.1386558 113.12387,80.2877868 109.299887,80.6436063 C112.337071,79.2117032 112.482285,78.8506911 114.673705,78.9731113 C117.577115,79.1361036 119.556433,80.129635 121.215399,82.5515491 C126.121889,89.7091287 126.355112,94.4809657 131.72893,100.92233 C135.776454,105.774255 139.584595,106.881405 145.045541,109.988996 C148.068643,111.709568 150.190535,111.978875 152.989215,114.045322 C156.83432,116.881845 158.765233,119.071504 161.058742,123.264243 L161.058742,123.264243" id="path34" fill-rule="nonzero"></path>
                        <path d="M111.534431,94.043562 C111.4297,93.3518128 111.453463,92.9267304 111.640041,92.252583 C111.821339,91.6004378 111.913749,91.172715 112.382835,90.6851462 C114.498567,93.2338811 115.707808,94.6613838 117.944111,97.1053881 C121.768974,101.285806 123.936631,103.644442 127.991196,107.603078 C124.183055,104.814079 122.023319,103.245762 118.412318,100.206818 C115.655883,97.8886664 114.135091,96.5350911 111.534431,94.043562 L111.534431,94.043562" id="path36" fill-rule="nonzero"></path>
                        <path d="M111.948952,93.8314608 C111.877665,93.283166 111.907588,92.932891 112.064244,92.3705147 L112.102967,92.233221 C112.199777,91.8785456 112.269304,91.6250802 112.398677,91.3918569 C114.277665,93.653683 115.493947,95.0794256 117.619359,97.4019778 C119.995597,99.9982373 121.697687,101.853463 123.53003,103.751813 C122.020679,102.601538 120.547412,101.4275 118.695707,99.8697445 C115.890866,97.5111087 114.419359,96.194497 111.948952,93.8314608 L111.948952,93.8314608 Z M112.407478,90.0250803 L112.066004,90.3797557 C111.552913,90.913089 111.420019,91.392737 111.253683,91.9999977 L111.216719,92.1346512 C111.013419,92.8686445 110.984376,93.3482925 111.099667,94.1095686 L111.122549,94.2574234 L111.2308,94.3612738 C113.753132,96.7779954 115.300327,98.164134 118.12805,100.543892 C121.6308,103.490426 123.785255,105.068424 127.355772,107.683166 L127.73069,107.958633 L128.298347,107.288006 C124.33003,103.412979 122.243341,101.152913 118.269744,96.8079184 C116.0264,94.3568733 114.800437,92.9082485 112.721669,90.4035181 L112.407478,90.0250803 L112.407478,90.0250803 Z" id="path38" fill-rule="nonzero"></path>
                        <path d="M105.383496,95.0512628 C106.348952,94.8321208 108.880085,94.5971373 107.897907,94.7194696 C107.311768,94.7925169 108.82376,94.683386 109.413419,94.7159492 C109.349172,93.5014278 109.417819,92.7823959 109.767214,91.6171594 C110.460723,89.3069285 111.170074,87.8946513 113.037621,86.3689307 C110.481845,87.0486227 109.048182,88.092407 107.43146,90.1861364 C106.172935,91.8151792 105.615839,93.0059383 105.383496,95.0512628 L105.383496,95.0512628" id="path40" fill-rule="nonzero"></path>
                        <path d="M94.4598436,97.9617137 C95.2184795,98.4387214 95.7878964,98.554893 96.683826,98.5372913 C97.1898766,98.5267302 97.4899866,98.4862462 97.9599535,98.2979073 C98.1535729,96.9698546 98.3357511,96.2217798 98.7863562,94.9579734 C99.5529128,92.8114388 99.9815157,91.5273905 101.357093,89.7091287 C98.8021977,90.5311309 97.4688644,91.7702947 95.9823958,94.003078 C95.0662242,95.3812957 94.7212298,96.3291505 94.4598436,97.9617137 L94.4598436,97.9617137" id="path42" fill-rule="nonzero"></path>
                        <path d="M90.6094587,100.92233 C90.0083586,101.190757 90.4211199,101.937071 90.3753553,102.592737 C90.2987876,103.710448 90.4739251,105.290206 90.6094587,105.455663 L91.7773354,106.887566 C92.2015378,107.406818 92.7287106,107.339931 93.293727,107.702528 C93.9089085,108.096807 94.2503827,108.332671 94.8145191,108.796477 C95.8098986,109.613199 96.2657842,110.193177 97.2171593,111.060063 C97.1669943,112.688226 98.3489524,114.115729 99.975355,114.195817 C101.766334,114.282945 103.350492,112.73223 103.22552,110.943012 C103.985036,111.673485 104.313309,112.358193 104.32299,113.411658 C104.333551,114.491526 103.992957,115.193837 103.22552,115.953352 C104.746312,117.280525 105.601758,118.043561 106.964134,119.53267 C107.936631,120.595817 108.469084,121.218039 109.299887,122.395597 C110.757313,124.460283 111.273925,125.82882 112.337071,128.121449 C113.149392,129.871944 113.599117,130.866443 114.291746,132.667103 C114.803958,134.000437 114.997577,134.786355 115.457863,136.13817 L118.745872,135.578434 C118.511768,137.725849 117.791856,137.145871 116.776235,141.720569 C115.586356,147.085585 119.346092,154.604177 130.093726,164.863362 C129.159073,160.807917 131.205277,155.821338 133.83146,155.081184 C140.606377,153.173153 149.952031,156.03608 157.661602,167.010777 C154.624419,156.03608 155.500986,153.675684 150.886685,146.730909 C146.157092,139.614518 139.4385,135.517708 134.299667,132.415398 C134.769634,132.021999 135.13047,131.926949 135.700767,131.700767 C136.653022,131.322329 137.23388,131.121669 138.259182,131.100547 C135.464023,130.396476 133.903627,129.704727 131.494826,128.121449 C127.899667,125.758413 126.067324,123.793176 124.019359,120.009678 C127.0319,121.487346 128.725189,122.33047 131.72893,123.82662 C135.977114,125.943231 138.881405,126.268864 142.709787,129.076344 C147.614518,132.671504 149.606157,135.801977 152.755112,141.005057 C156.361712,146.960612 157.783054,150.862923 159.063582,157.706487 C159.998236,150.787235 159.289765,146.53729 164.670623,145.53839 C167.24048,145.061383 168.869523,146.091085 170.511767,147.924309 C168.627499,139.766773 166.4396,135.101427 161.166993,128.598457 C158.54169,125.362373 156.876564,123.581955 153.456542,121.202197 C151.302967,119.704287 151.353132,119.53267 147.615398,117.862263 C141.382615,115.077665 138.0374,116.191856 126.355112,110.466004 C119.108468,106.913969 116.596697,101.117709 116.308908,100.92233 C115.92431,100.557093 114.170294,99.4675443 112.805278,98.5372913 C111.750932,97.8182594 110.536411,96.5808557 110.156213,96.6186995 C109.365014,96.0466423 108.637181,96.7823958 107.664684,96.8668843 C106.651703,96.9548931 105.432781,96.7498326 105.065784,97.0666642 C104.593177,97.1027478 103.632121,98.5584134 102.52497,99.2528028 C100.738391,100.372275 99.4921867,100.92409 97.384376,100.92233 C95.6162792,100.92145 93.7804157,99.5053881 92.9751352,99.864464 L90.6094587,100.92233 L90.6094587,100.92233 Z M113.346532,108.997137 C114.82948,110.468644 114.341911,113.42574 112.433,114.275905 C110.642902,115.073264 108.345872,113.839381 107.998237,111.909348 C109.078985,112.799117 110.314629,112.93113 111.566114,112.303628 C112.875685,111.647962 113.445102,110.458963 113.346532,108.997137 L113.346532,108.997137 L113.346532,108.997137 Z" id="path44"></path>
                        <polyline id="path46" fill-rule="nonzero" points="149.726729 13.7389656 149.726729 11.2747192 149.166113 11.2747192 149.166113 13.7389656 148.282505 13.7389656 148.282505 14.2161493 150.609457 14.2161493 150.609457 13.7389656 149.726729 13.7389656"></polyline>
                        <path d="M153.600876,11.2747192 L153.600876,13.4309348 C153.578874,13.2786795 153.583274,13.2577334 153.489105,13.0122769 L152.817598,11.2747192 L152.312427,11.2747192 L151.698126,12.9802417 C151.63476,13.1504507 151.631239,13.1978875 151.586355,13.4495046 L151.586355,11.2747192 L151.078544,11.2747192 L151.078544,14.2161493 L151.751811,14.2161493 L152.53597,12.1170514 C152.567653,12.0317709 152.580854,12.0018479 152.594056,11.8901647 C152.611657,12.0262263 152.619578,12.0458523 152.646861,12.1170514 L153.462702,14.2161493 L154.13509,14.2161493 L154.13509,11.2747192 L153.600876,11.2747192" id="path48" fill-rule="nonzero"></path>
                    </g>
                </g>
            </g>
        </g>
    </g>
</svg>