<svg width="200" height="200" viewBox="0 0 200 200" fill="none" xmlns="http://www.w3.org/2000/svg">
<g clip-path="url(#clip0_10_342416)">
<path d="M122.899 164.892C122.072 167.676 119.519 170.072 116.43 170.168H103.493C100.152 173.149 95.5282 175.287 90.9214 175.259C84.1152 175.219 76.9547 169.223 75.7622 167.974C67.6623 159.452 64.3211 148.422 57.8862 138.86C52.6156 131.024 47.9132 122.677 41.1464 115.983C28.2034 103.181 17.3473 102.033 0 104.418C8.52739 94.1189 16.031 86.3678 27.6803 79.5672C18.4273 73.4304 16.5823 64.6836 14.7036 54.7163C11.8742 54.6375 9.44426 53.9738 7.83553 50.5707C5.20306 44.9739 6.1593 39.5965 6.1593 34.0503L6.56429 25.8829C7.72303 29.1116 10.4511 35.7996 12.7967 38.4377C14.8836 40.7833 17.1842 39.3433 19.8054 39.1915C19.8054 39.1915 20.4635 39.3321 20.936 39.4671C23.4391 40.1983 23.3716 41.0027 24.6822 42.6283C25.7734 45.002 30.7459 52.8038 33.1702 54.5419C35.8252 56.6625 39.0314 57.7819 44.5044 57.7819H70.5872C73.4053 56.2237 76.364 55.3519 79.5421 54.9188H126.724C129.913 55.3575 132.883 56.2294 135.713 57.7819H161.795C165.643 57.7819 167.769 57.4219 169.625 56.5219C170.778 56.01 171.903 55.3238 172.888 54.5363C172.888 54.5363 173.045 54.4238 173.248 54.2438C176.477 51.4538 178.58 47.2632 180.802 43.6745C181.016 43.3314 181.207 42.9883 181.376 42.6227C183.148 40.4289 182.906 39.889 186.253 39.1858C191.203 39.4727 192.254 41.4527 195.089 35.3609C195.466 34.5453 195.838 33.724 196.304 32.9478L199.539 24.9941C199.404 30.6247 200.096 36.244 199.983 41.8689C199.927 44.6364 199.612 47.6232 198.223 50.5707C196.614 53.9738 194.184 54.6375 191.354 54.7163C190.297 60.3468 189.076 66.7817 186.067 71.7261C181.595 79.4772 173.012 84.0784 166.16 84.0784H162.335C165.986 86.6827 170.784 89.7765 173.433 90.2771L179.913 91.5033C179.913 91.5033 170.981 95.3339 167.657 96.6782C159.152 100.115 152.036 102.725 142.35 100.672C142.007 101.364 141.748 101.926 141.591 102.264L141.405 107.928C141.169 112.203 136.99 118.014 134.042 120.702L132.445 133.06C134.093 135.839 134.723 138.691 135.055 141.863C133.862 144.687 132.754 147.522 131.82 150.441C131.539 151.741 130.83 152.883 129.885 153.749C131.477 158.001 129.553 165.117 123.006 164.408L122.888 164.903L122.899 164.892Z" fill="#FEBC11"/>
<path d="M102.694 168.149C102.694 168.149 97.7275 173.284 90.9326 173.245C84.987 173.211 78.3271 167.749 77.219 166.585C72.5334 161.658 69.9122 157.09 67.5441 152.405C66.3741 150.082 65.2604 147.73 63.9892 145.289C62.7292 142.865 61.3229 140.362 59.5511 137.735C56.3111 132.92 53.8249 128.859 51.2487 125.112C48.7062 121.417 46.0738 118.025 42.5582 114.549C30.6052 102.725 18.4779 99.8453 4.8374 101.718C12.6054 92.336 21.0259 85.2373 31.7471 79.6011C27.1346 77.3006 22.7359 73.4644 20.531 68.4188C18.8547 64.5938 18.3372 62.1807 17.3922 58.0689C16.9141 55.9933 16.5598 53.4902 16.3516 52.7084C13.6404 52.7084 11.1992 52.9784 9.65234 49.7103C7.23362 44.5691 8.44298 39.0848 8.00424 33.9492C9.24172 35.9911 10.8055 41.9535 15.6485 41.7791C17.0379 41.7285 18.2922 41.2954 19.6535 41.2166C19.6535 41.2166 20.9472 41.4866 21.5153 41.8691C22.2128 42.336 22.4209 43.0279 22.9609 43.6972C23.2759 44.3778 24.8678 46.7572 26.0378 48.7484C29.2946 54.2946 31.9664 56.1452 31.9664 56.1452C35.0714 58.6258 38.7164 59.7901 44.5044 59.7901H71.1159C73.7484 58.2545 76.634 57.3433 79.6771 56.9271H126.589C129.638 57.3433 132.535 58.2545 135.19 59.7901H161.801C165.744 59.7901 168.208 59.4414 170.48 58.3445C171.797 57.7595 172.983 57.0396 174.103 56.1452C174.103 56.1452 176.775 54.2946 180.031 48.7484C181.201 46.7572 182.793 44.3778 183.108 43.6972C183.648 43.0279 183.856 42.3304 184.554 41.8691C185.122 41.4866 186.416 41.2166 186.416 41.2166C187.777 41.2954 189.031 41.7285 190.421 41.7791C195.264 41.9535 196.827 35.9911 198.065 33.9492C197.626 39.0848 198.836 44.5691 196.417 49.7103C194.87 52.9784 192.429 52.7027 189.718 52.7084C189.509 53.4902 189.155 55.9933 188.677 58.0689C187.732 62.1807 187.209 64.5938 185.538 68.4188C185.195 69.2007 184.801 69.9544 184.363 70.6744C180.234 77.863 172.28 82.0592 166.177 82.0592H156.367C156.536 82.2392 167.82 91.2504 173.079 92.246C173.079 92.246 161.694 97.1284 158.004 98.0565C151.659 99.654 147.182 99.8396 141.293 98.3434C140.286 100.278 139.616 101.786 139.616 101.786L139.419 107.833C139.211 111.573 134.965 117.423 132.169 119.673L130.38 133.505C131.905 135.834 132.692 138.41 133.024 141.548C131.854 144.322 130.791 147.106 129.896 149.924C129.632 151.302 128.603 152.506 127.258 153.108C130.262 156.68 127.838 163.947 121.763 162.079C121.515 162.046 121.279 163.069 120.981 164.38C120.48 166.068 119.547 167.086 117.831 167.828C117.516 167.963 116.92 168.138 116.43 168.154H102.728L102.694 168.149Z" fill="#231F20"/>
<path d="M124.26 98.1349C125.284 99.4343 125.931 101.111 125.931 102.961C125.931 106.735 123.214 109.795 119.862 109.795C119.44 109.795 119.024 109.745 118.624 109.655C118.624 109.655 118.129 110.667 118.022 110.847C118.399 110.898 118.782 110.926 119.17 110.926C124.148 110.926 128.338 106.629 128.535 101.262C128.586 99.918 128.378 98.6299 127.962 97.4543C128.052 97.4318 124.423 98.1574 124.255 98.1405M91.9901 90.9125C92.4457 85.0401 81.0215 76.1358 78.0291 74.8027H73.2029C66.7004 75.174 62.448 76.4621 57.2731 79.702C62.1049 77.7614 69.9067 77.1989 77.0559 78.9089C83.3446 80.4108 88.3114 84.5113 91.9901 90.9069M195.731 42.4594C192.783 45.4856 188.593 43.7869 187.13 43.7025C187.13 43.7025 186.691 43.77 186.466 43.9218C186.191 44.1075 186.056 44.2818 185.949 44.6025C185.589 45.4856 183.879 47.9999 182.585 50.1936C180.482 53.7599 177.652 56.3642 177.652 56.3642C173.889 60.3973 169.766 62.5291 161.908 62.5291H135.026C132.501 61.0554 128.935 59.5873 126.01 59.1823H111.773L111.211 61.8204H125.751C127.883 62.1129 129.081 62.4504 131.033 63.3054C131.995 63.7272 133.063 65.0772 133.266 65.606H164.698L136.151 68.9697C136.995 70.1453 137.411 70.8878 137.991 72.2321H167.027C168.382 72.2321 176.572 67.6084 179.255 65.0828L179.317 65.0153C181.331 62.6191 182.771 60.3241 183.817 58.0123C184.335 56.5723 184.537 55.9311 184.987 54.5698C185.73 52.3424 186.123 51.0768 186.798 48.8268C187.012 48.3993 187.226 48.1687 187.642 47.9268C187.867 47.7974 188.013 47.7412 188.266 47.6849C189.436 47.8143 190.106 48.1855 191.641 48.0055C192.873 47.8649 193.97 47.4374 194.448 46.5093C195.016 45.3956 195.731 43.5394 196.293 41.8181C196.108 42.0544 195.86 42.3131 195.719 42.4594M132.602 74.7633C132.214 74.8027 130.178 74.8027 130.178 74.8027C127.197 76.1302 115.857 84.967 116.211 90.8394C119.884 84.4832 124.84 80.4108 131.1 78.9145C136.81 77.5477 142.935 77.6321 147.632 78.7064C146.912 78.3014 146.209 77.9358 145.5 77.6039C141.641 75.7814 137.856 75.0052 132.602 74.7633ZM86.7814 110.892C87.1696 110.892 87.5577 110.864 87.9289 110.814C87.8221 110.634 87.3271 109.621 87.3271 109.621C86.9277 109.717 86.5171 109.762 86.0896 109.762C82.7371 109.762 80.0203 106.702 80.0203 102.927C80.0203 101.082 80.6728 99.4062 81.6909 98.1012C80.6559 97.8593 79.3003 97.6512 77.9841 97.4149C77.5678 98.5905 77.3597 99.8786 77.4103 101.223C77.6072 106.589 81.8034 110.887 86.7758 110.887M91.962 105.813L83.9971 89.3544C83.0915 89.3375 82.7315 89.3713 81.6515 89.3544C81.5503 89.5457 81.6515 89.4894 81.6853 89.4275L89.6164 105.813C89.982 106.606 90.2633 107.034 90.8483 107.692C91.7708 108.738 92.4795 109.239 93.7732 109.779H96.1188C94.8195 109.239 94.1163 108.738 93.1939 107.692C92.6145 107.034 92.3333 106.606 91.962 105.813ZM18.3373 47.6849C18.5904 47.7412 18.7367 47.7974 18.9617 47.9268C19.3779 48.1687 19.5917 48.3937 19.811 48.8268C20.486 51.0768 20.8854 52.3424 21.6223 54.5698C22.0779 55.9367 22.2748 56.5779 22.7979 58.0123C23.8441 60.3241 25.2897 62.6135 27.2978 65.0153L27.3541 65.0828C30.0428 67.6084 38.2327 72.2321 39.5883 72.2321H68.6242C69.2035 70.8878 69.6198 70.1453 70.4635 68.9697L41.9395 65.5328L73.3941 65.606C73.5629 65.0716 74.6204 63.7272 75.5878 63.3054C77.5453 62.4504 78.7434 62.1129 80.8696 61.8204H96.1751L95.6913 59.6829L95.5788 59.1823H80.6109C77.6859 59.5817 74.1197 61.0554 71.5941 62.5291H44.7126C36.8546 62.5291 32.7259 60.3973 28.9684 56.3586C28.9684 56.3586 26.1447 53.7542 24.041 50.188C22.7472 47.9943 21.0429 45.48 20.6773 44.5968C20.5704 44.2818 20.4354 44.1018 20.1598 43.9162C19.9348 43.7644 19.496 43.6969 19.496 43.6969C18.0336 43.7812 13.8486 45.4856 10.8955 42.4537C10.7549 42.3075 10.5074 42.0487 10.3218 41.8125C10.8843 43.5394 11.5986 45.39 12.1668 46.5037C12.6505 47.4318 13.7417 47.8593 14.9792 47.9999C16.5148 48.1799 17.1842 47.8087 18.3542 47.6793M67.8086 114.07C66.183 115.533 64.8273 116.832 63.618 118.132C61.3961 120.522 59.6693 122.913 57.6499 126.321C59.2868 128.813 61.0136 131.485 63.0386 134.449C63.8092 135.58 64.518 136.694 65.1705 137.785C63.6686 130.855 64.7317 125.298 68.6748 118.874C68.8323 118.621 68.9842 118.373 69.136 118.137C69.9348 116.888 70.6773 115.887 71.5098 114.965C70.9135 114.098 70.3567 113.198 69.8842 112.298C69.2317 112.833 68.6017 113.362 67.8086 114.076M107.239 105.824C110.699 97.7074 116.402 83.4932 117.679 74.8083L114.816 74.7971C113.438 80.4501 112.628 83.6282 111.121 89.2475C109.236 96.2618 108.1 100.261 106.041 107.107C106.553 106.786 106.964 106.347 107.239 105.83M30.0765 86.4857C23.3885 90.7269 21.0991 91.9419 13.6405 98.4105C13.8655 98.3599 14.6698 98.253 15.5417 98.1743C19.2823 95.3843 22.7247 93.2525 27.7534 90.5075C33.1815 87.5432 38.2496 85.2707 43.2051 83.4764H35.0096C34.0252 84.0388 31.9103 85.327 30.0822 86.4857M105.636 134.286C105.113 134.298 104.607 134.286 104.123 134.258C100.366 133.988 96.9626 133.223 94.7576 131.924C94.7801 130.467 94.7576 129.241 94.6957 127.463C94.5663 123.762 94.3695 121.051 93.9645 118.137C93.8745 117.496 93.7789 116.849 93.6664 116.174C93.6157 116.877 93.5595 117.502 93.4864 118.132C93.3964 118.936 93.2782 119.757 93.1151 120.775C92.4232 125.151 91.7933 127.581 90.2914 131.682C90.3027 130.36 90.2464 129.606 90.0327 128.29C89.7233 126.395 89.4083 125.32 88.6433 123.526C87.6083 125.973 86.7927 128.819 85.0715 130.85C84.3065 131.755 83.7327 132.138 82.9565 133.032C80.5153 135.844 78.2878 138.094 77.9897 141.188C78.7884 143.044 81.3534 150.098 81.6571 150.481C81.809 150.672 81.9778 150.812 82.1578 150.925C81.4715 148.827 78.8222 140.114 84.3065 134.764C85.2852 133.808 85.949 133.099 86.4664 132.531L86.3427 132.419C92.9576 135.141 97.1594 136.002 104.309 136.086C111.351 136.171 115.575 135.439 122.044 132.976L122.252 132.897C119.524 133.493 116.7 133.859 113.162 134.134C110.215 134.365 108.482 134.404 105.636 134.286Z" fill="#FEBC11"/>
<path d="M99.5445 165.854L106.997 161.979H115.39C116.346 161.99 117.336 162.26 117.96 163.177C118.557 164.048 118.703 164.656 118.197 165.871H106.767C107.211 165.59 107.431 165.365 107.667 164.903C107.897 164.448 107.971 164.127 107.92 163.615C107.543 163.784 106.699 164.285 105.901 164.673C104.871 165.173 103.814 165.719 103.206 165.854H99.5332H99.5445Z" fill="#49306E"/>
<path d="M81.0105 153.147C81.0105 153.147 79.4411 151.774 78.8617 150.621C78.4961 149.89 78.4174 149.772 78.2149 148.635C77.388 146.262 76.443 143.905 75.4249 141.554C75.4305 141.464 75.4418 141.374 75.453 141.278C75.6443 139.433 75.9987 137.785 76.5836 136.261C76.4205 134.219 76.3362 132.183 76.1899 129.573C76.1112 128.166 76.0268 126.468 75.948 124.881C75.813 122.114 75.7005 119.678 75.7005 119.678C74.4293 118.666 72.8656 116.916 71.5156 114.959C70.52 116.061 69.6594 117.271 68.6806 118.874C67.4094 120.944 66.4419 122.918 65.7557 124.881C64.3157 129.016 64.1582 133.083 65.1763 137.779C65.885 138.966 66.5375 140.131 67.1563 141.272C67.2913 141.52 67.4206 141.773 67.5556 142.021C68.8437 144.473 69.9744 146.841 71.1668 149.17C71.825 150.458 72.8599 152.084 74.0131 153.569C77.0224 157.427 80.8586 160.296 81.0105 153.569C81.0105 153.428 81.0105 153.287 81.0105 153.141" fill="#49306E"/>
<path d="M127.433 135.26C126.718 134.326 126.251 133.826 125.357 133.038C124.468 132.239 123.99 131.756 123.22 130.856C121.791 129.191 120.975 126.98 120.143 124.888C119.957 124.426 119.777 123.976 119.586 123.532C119.378 124.027 119.209 124.466 119.063 124.888C118.675 125.984 118.461 126.924 118.253 128.296C118.056 129.613 118.005 130.366 118.033 131.688C117.038 129.05 116.177 127.104 115.496 124.888C115.12 123.661 114.793 122.351 114.529 120.793C114.146 118.56 113.995 117.277 113.831 114.999C113.359 114.161 112.909 113.728 112.043 113.266C111.508 112.98 111.12 112.845 110.592 112.771L108.915 124.888L108.274 129.511L107.644 124.888L106.288 114.954C105.743 115.635 104.567 116.096 103.583 116.096C102.599 116.096 101.535 115.68 100.984 115.027L99.9998 124.888L99.5386 129.5L98.7679 124.888L96.743 112.788C96.3211 112.867 95.9667 113.008 95.5111 113.25C94.6505 113.711 94.2061 114.15 93.7449 114.982C93.7224 115.41 93.6943 115.803 93.6661 116.175C94.1555 119.15 94.4199 121.693 94.5886 124.882C94.6336 125.692 94.6674 126.547 94.7011 127.464C94.763 129.241 94.7799 130.468 94.7574 131.924C96.9623 133.224 100.371 133.989 104.123 134.259C104.607 134.292 105.118 134.304 105.636 134.287C108.488 134.399 110.215 134.366 113.162 134.135C116.7 133.859 119.518 133.494 122.252 132.897L122.044 132.976L122.483 132.807C116.779 137.757 111.857 139.557 104.308 139.473C96.8386 139.383 91.9899 137.504 86.4662 132.532C85.9487 133.1 85.285 133.803 84.3062 134.765C82.36 136.661 81.4375 138.984 81.0888 141.279C80.4532 145.464 81.7131 149.57 82.1575 150.925C82.8775 151.364 83.7887 151.269 84.655 151.792C85.6506 152.393 86.2693 152.866 86.95 153.575C87.1243 153.76 87.3043 153.957 87.4956 154.182C87.1468 154.897 86.8487 155.178 86.4606 155.943C85.6956 157.456 86.3706 160.78 90.0718 160.24C93.0868 160.24 104.162 158.491 113.179 158.952C116.768 159.138 118.798 159.357 122.359 159.813C122.972 160.032 123.394 160.06 124.041 159.931C125.925 159.554 126.504 157.349 125.852 155.701C125.402 154.57 124.446 153.805 123.27 153.569C122.803 153.473 122.297 153.457 121.774 153.541C122.522 152.782 122.995 152.388 123.894 151.786C124.299 151.51 124.536 151.37 124.969 151.134C125.751 151.229 126.341 151.027 126.881 150.481C127.224 150.132 127.371 149.851 127.438 149.384C127.86 148.051 128.113 147.297 128.586 145.97C129.244 144.125 129.649 143.079 130.403 141.279C130.414 141.251 130.425 141.222 130.442 141.189C130.11 138.095 129.373 137.786 127.433 135.254M124.299 143.495C124.052 144.361 123.894 144.845 123.591 145.694C123.338 146.386 123.186 146.769 122.893 147.438C121.723 148.09 121.02 148.394 119.749 148.816C118.36 149.277 117.538 149.452 116.087 149.615C115.609 147.629 113.258 146.47 111.368 147.303C110.035 147.894 109.326 148.962 109.315 150.414H108.246V145.689C112.268 144.4 114.782 143.287 117.988 141.279C118.585 140.907 119.198 140.502 119.856 140.064C121.83 138.736 122.899 137.909 124.699 136.329C124.598 137.645 124.463 138.387 124.097 139.653C123.911 140.294 123.788 140.66 123.534 141.273C123.534 141.273 123.534 141.279 123.534 141.284L124.305 143.489L124.299 143.495ZM100.596 150.414C100.568 148.962 99.8479 147.894 98.5092 147.303C96.6136 146.47 94.2736 147.629 93.818 149.615C92.3668 149.452 91.5399 149.272 90.1449 148.816C88.8737 148.4 88.1649 148.09 86.9893 147.438C86.6912 146.769 86.5281 146.38 86.2693 145.694C85.9543 144.85 85.7912 144.367 85.5381 143.495L86.2862 141.29V141.279C86.0218 140.66 85.8925 140.3 85.7012 139.659C85.3244 138.393 85.1781 137.651 85.0656 136.334C86.8768 137.915 87.9568 138.742 89.9424 140.069C90.6005 140.508 91.2249 140.913 91.8212 141.284C95.0499 143.298 97.5754 144.412 101.614 145.7L101.659 150.425H100.59L100.596 150.414ZM119.17 153.575C118 154.441 117.071 154.936 115.553 155.527C113.865 156.185 112.836 156.432 111.036 156.601H94.223C92.2093 156.348 90.9999 155.802 89.4756 154.458C89.1099 154.137 88.8456 153.873 88.5981 153.575C88.3899 153.333 88.1987 153.063 87.9737 152.725C91.703 153.164 94.5267 153.423 97.4742 153.575C99.7635 153.693 102.132 153.743 105.051 153.755C108.471 153.766 111.008 153.721 113.702 153.575C115.547 153.468 117.465 153.316 119.8 153.102C119.58 153.271 119.378 153.434 119.181 153.575H119.17Z" fill="#49306E"/>
<path d="M82.2138 124.883C83.8675 123.988 86.5 122.768 88.2887 122.976C87.8612 122.616 86.7587 119.871 87.6362 117.981C87.6362 117.981 86.7812 115.551 84.8012 114.544C80.9875 112.98 78.4845 111.259 76.2401 108.497C75.5426 107.631 74.8676 106.669 74.1814 105.572C74.1814 105.572 74.0858 107.158 74.3051 108.497C74.3558 108.807 74.4233 109.099 74.5133 109.358C75.0476 110.882 75.7732 111.4 76.8982 112.603C78.6701 114.488 79.8738 115.422 82.1463 116.687C80.4476 116.265 79.5026 115.933 77.922 115.213C76.6564 114.634 75.8014 114.178 74.8564 113.548C74.9745 113.886 75.1207 114.235 75.3007 114.628C76.2007 116.563 77.1063 117.598 78.9232 118.768L80.4588 124.9L80.6838 125.788C80.6838 125.788 81.2969 125.395 82.2138 124.9V124.883Z" fill="#49306E"/>
<path d="M134.059 105.566C133.378 106.657 132.703 107.625 132.006 108.485C129.761 111.253 127.264 112.968 123.444 114.538C121.465 115.545 120.61 117.975 120.61 117.975C121.487 119.87 120.385 122.609 119.957 122.969C121.74 122.761 124.378 123.982 126.032 124.882C126.943 125.377 127.556 125.771 127.556 125.771L127.781 124.882L129.311 118.751C131.134 117.581 132.034 116.551 132.939 114.611C133.119 114.217 133.266 113.868 133.384 113.531C132.439 114.161 131.578 114.616 130.318 115.196C128.738 115.916 127.793 116.248 126.094 116.67C128.366 115.404 129.57 114.47 131.342 112.586C132.473 111.382 133.192 110.865 133.727 109.34C133.817 109.082 133.884 108.789 133.935 108.48C134.16 107.147 134.059 105.555 134.059 105.555" fill="#49306E"/>
<path d="M45.4552 99.9973C42.6146 97.7642 40.5278 95.0586 37.8784 94.6592C32.366 93.8324 32.2929 95.548 26.3867 99.2492C30.2229 100.2 33.6091 101.837 37.6928 104.463C39.3747 105.549 41.2365 107.073 42.834 108.485C44.9321 110.336 46.5746 111.99 46.749 112.175C48.1664 110.73 49.7189 109.498 51.187 108.485C54.1964 106.41 56.8682 105.24 57.3463 104.975C57.667 104.795 51.0633 104.413 45.4496 99.9973" fill="#49306E"/>
<path d="M123.743 103.396C123.743 105.848 122.055 107.839 119.974 107.839C119.8 107.839 119.631 107.828 119.462 107.8L119.901 106.911C120.047 106.939 120.199 106.956 120.357 106.956C121.566 106.956 122.545 106.039 122.545 104.914C122.545 104.256 122.207 103.666 121.69 103.294L122.967 100.701C123.456 101.449 123.743 102.383 123.743 103.401" fill="#49306E"/>
<path d="M82.2197 103.36C82.2197 102.342 82.5066 101.408 82.996 100.66L84.2728 103.253C83.7553 103.63 83.4178 104.215 83.4178 104.873C83.4178 106.004 84.3966 106.915 85.6059 106.915C85.7634 106.915 85.9153 106.898 86.0616 106.87L86.5003 107.759C86.3316 107.787 86.1628 107.798 85.9884 107.798C83.9072 107.798 82.2197 105.807 82.2197 103.355" fill="#49306E"/>
<path d="M100.27 108.486L95.258 103.867L90.7131 93.512C91.1743 93.0788 91.5062 92.6007 91.7143 92.0889C91.8662 91.712 91.9562 91.3182 91.9899 90.9076C88.3112 84.5121 83.3444 80.4115 77.0557 78.9096C69.9065 77.1997 62.099 77.7565 57.2729 79.6971C56.7497 80.029 56.2097 80.3777 55.6641 80.7434C54.421 81.5815 53.3242 82.5658 52.4635 83.4546L43.1993 83.4715C38.2493 85.2714 33.1757 87.5383 27.7476 90.5026C26.7464 91.0482 25.807 91.5714 24.9183 92.0832C21.3408 94.1251 18.534 95.9363 15.5415 98.1694C15.9296 98.1357 17.3021 98.0794 18.4271 98.1019C19.7096 98.1244 21.4308 98.2425 21.7064 98.3269C25.5933 95.8913 29.2045 94.0013 33.1757 92.0889C34.4694 91.4645 35.8081 90.8345 37.1975 90.1876C42.7662 87.5889 46.5911 85.4852 51.7323 84.4727C50.7029 85.6483 49.6567 86.8127 48.003 87.8814C45.1174 89.7433 43.2837 90.5701 39.9481 91.5264C43.2668 92.1788 45.2805 92.1788 48.5036 91.5264C52.2554 90.767 53.6898 88.6633 57.2841 87.392C60.4903 86.2558 62.3803 85.7664 65.7665 85.1927L59.3035 83.9608C61.7053 83.1283 63.1059 82.7458 65.6203 82.2396C67.6059 81.8402 68.7477 81.6771 70.7783 81.4915C71.6221 83.8033 72.5389 85.0858 74.4401 86.6495C76.7745 88.5676 78.6813 89.282 81.6457 89.3439C82.7313 89.3608 83.0857 89.3214 83.9913 89.3439L85.3188 92.0776L91.9618 105.802C92.3274 106.59 92.6087 107.023 93.1937 107.681C93.4636 107.985 93.7168 108.249 93.9699 108.474C94.583 109.02 95.2018 109.386 96.1186 109.762H101.67L100.27 108.474V108.486Z" fill="#49306E"/>
<path d="M133.255 65.6057L133.232 65.5269C132.962 64.9588 131.95 63.7044 131.033 63.2994C129.075 62.4444 127.877 62.1069 125.751 61.8145H111.216L108.286 75.7587L106.311 61.927C105.513 62.6469 104.568 62.6526 103.369 62.6526C102.447 62.6526 101.592 62.3938 100.883 61.9438L99.342 75.7587L96.1751 61.8145H80.8697C78.7378 62.1069 77.5397 62.4444 75.5879 63.2994C74.626 63.7213 73.5573 65.0769 73.3942 65.6057C72.6292 67.8556 72.7248 69.3406 73.1073 71.72C73.3042 72.9349 73.5123 73.6662 73.996 74.8024H90.5333C91.2308 79.5499 93.2558 85.9398 95.5114 92.0878C97.317 97.0153 99.2745 101.785 100.816 105.425L101.041 105.886C101.592 106.932 102.762 107.646 104.112 107.646C104.832 107.646 105.496 107.444 106.052 107.095C107.813 101.234 108.899 97.4596 110.361 92.0878C110.603 91.1878 110.862 90.2428 111.132 89.236C112.639 83.6167 113.455 80.4386 114.833 74.7855L117.696 74.7968H130.189C130.189 74.7968 132.231 74.7968 132.613 74.7574C133.097 73.6212 133.294 72.9293 133.485 71.7143C133.862 69.3519 133.963 67.8669 133.266 65.5944M73.9848 74.8024H73.2029H73.9904H73.9848Z" fill="#49306E"/>
<path d="M115.322 108.485C115.57 108.255 115.823 107.996 116.087 107.692C116.661 107.034 116.937 106.607 117.291 105.813L123.754 92.0886L125.042 89.3549C128.006 89.293 129.908 88.5786 132.214 86.6605C134.093 85.0968 134.993 83.8087 135.808 81.5025C137.839 81.6881 138.986 81.8512 140.978 82.2506C143.498 82.7512 144.904 83.1337 147.317 83.9718L140.871 85.2093C144.268 85.783 146.169 86.2724 149.387 87.4086C152.998 88.6855 154.466 90.7836 158.224 91.543C161.452 92.1955 163.466 92.1955 166.779 91.543C163.432 90.5867 161.587 89.7599 158.679 87.898C155.226 85.6874 154.359 83.0662 150.922 80.7656C149.769 79.995 148.684 79.3144 147.632 78.7181C142.935 77.6438 136.81 77.565 131.1 78.9263C124.834 80.4225 119.884 84.4949 116.211 90.8511C116.239 91.2842 116.329 91.7061 116.492 92.1055C116.7 92.6173 117.027 93.0955 117.494 93.5286L112.949 103.884L107.937 108.502L106.536 109.796H113.196C114.107 109.413 114.726 109.053 115.328 108.502L115.322 108.485Z" fill="#49306E"/>
<path d="M27.3539 65.0779C28.1752 67.3504 36.4326 74.9553 39.6331 75.2647H62.0429C59.9841 75.7878 58.8535 76.1759 56.9129 77.0084C55.1748 77.7565 54.2073 78.2571 52.5986 79.2471H40.2069C34.4976 79.2471 26.2177 74.7584 23.0227 67.4066C21.459 63.8067 20.2721 59.3461 19.7096 56.3086C19.254 54.2162 18.5003 50.9425 18.2415 50.5656C17.9097 50.0818 17.0322 50.2393 17.0322 50.2393C15.0072 50.1887 12.9091 50.8187 11.8854 48.6475C11.0585 46.8925 10.3835 44.665 10.1191 41.5488C10.1641 41.622 10.2316 41.712 10.3048 41.802C10.8673 43.5288 11.5816 45.3794 12.1497 46.4931C12.6335 47.4213 13.7247 47.8487 14.9566 47.9894C16.4922 48.1694 17.1616 47.7981 18.3315 47.6688C18.5847 47.725 18.7309 47.7812 18.9559 47.9106C19.3722 48.1525 19.5859 48.3775 19.8053 48.8106C20.4803 51.0606 20.8796 52.3262 21.6165 54.5537C22.0665 55.9205 22.269 56.5618 22.7921 57.9961C23.8552 60.3417 25.3233 62.6592 27.3539 65.0667" fill="#49306E"/>
<path d="M179.255 65.0779C178.434 67.3504 170.177 74.9553 166.976 75.2647H144.566C146.625 75.7878 147.756 76.1759 149.696 77.0084C151.434 77.7565 152.402 78.2571 154.011 79.2471H166.402C172.106 79.2471 180.392 74.7584 183.587 67.4066C185.15 63.8067 186.343 59.3461 186.9 56.3086C187.355 54.2162 188.098 50.9312 188.373 50.5656C188.761 50.0425 189.583 50.2393 189.583 50.2393C191.608 50.1887 193.706 50.8187 194.73 48.6475C195.556 46.8925 196.231 44.665 196.496 41.5488C196.451 41.622 196.389 41.712 196.31 41.802C195.748 43.5288 195.033 45.3794 194.465 46.4931C193.981 47.4213 192.89 47.8487 191.653 47.9894C190.117 48.1694 189.448 47.7981 188.278 47.6688C188.025 47.725 187.878 47.7812 187.653 47.9106C187.237 48.1525 187.023 48.3775 186.804 48.8106C186.129 51.0606 185.73 52.3262 184.993 54.5537C184.543 55.9205 184.34 56.5618 183.817 57.9961C182.754 60.3417 181.286 62.6592 179.255 65.0667" fill="#49306E"/>
<path d="M7.81874 108.008V108.39H6.7275V111.242H6.28313V108.39H5.19189V108.008H7.81874Z" fill="#FEBC11"/>
<path d="M8.2068 108.008H8.83679L9.7649 110.742L10.6874 108.008H11.3118V111.242H10.8955V109.33C10.8955 109.262 10.8955 109.155 10.8955 109.003C10.8955 108.852 10.8955 108.688 10.8955 108.514L9.97302 111.242H9.5399L8.61179 108.514V108.615C8.61179 108.694 8.61179 108.818 8.61179 108.981C8.61179 109.144 8.61742 109.262 8.61742 109.335V111.248H8.20117V108.013L8.2068 108.008Z" fill="#FEBC11"/>
</g>
<defs>
<clipPath id="clip0_10_342416">
<rect width="200" height="150.259" fill="white" transform="translate(0 25)"/>
</clipPath>
</defs>
</svg>
